<svg xmlns="http://www.w3.org/2000/svg" viewBox="0 0 980 230" role="img" aria-labelledby="logoTitle logoDesc">
  <title id="logoTitle">Dominion City Global Services</title>
  <desc id="logoDesc">Dominion City Global Services logo with blue monogram and orange arc</desc>
  <defs>
    <linearGradient id="arcGrad" x1="0" y1="0" x2="1" y2="1">
      <stop offset="0" stop-color="#ff9f4f"/>
      <stop offset="1" stop-color="#ff6b00"/>
    </linearGradient>
    <linearGradient id="blueGrad" x1="0" y1="0" x2="0" y2="1">
      <stop offset="0" stop-color="#0f4a97"/>
      <stop offset="1" stop-color="#0a2f73"/>
    </linearGradient>
  </defs>

  <g transform="translate(10,10)">
    <path d="M170 6 C255 6 321 56 333 129 C345 204 293 256 210 266" fill="none" stroke="url(#arcGrad)" stroke-width="18" stroke-linecap="round" transform="scale(0.85)"/>
    <path d="M41 58 h96 c30 0 54 19 54 45 c0 27-24 46-54 46 H92 v44 H41 z M92 98 h43 c10 0 17-8 17-17 c0-10-7-17-17-17 H92z" fill="url(#blueGrad)" transform="scale(1.12)"/>
    <g fill="url(#blueGrad)" transform="translate(165,100) scale(1.05)">
      <rect x="0" y="55" width="26" height="60" rx="1"/>
      <rect x="29" y="35" width="26" height="80" rx="1"/>
      <rect x="58" y="18" width="26" height="97" rx="1"/>
      <rect x="87" y="45" width="26" height="70" rx="1"/>
      <rect x="116" y="63" width="26" height="52" rx="1"/>
    </g>
    <g fill="url(#blueGrad)" transform="translate(18,144)">
      <circle cx="24" cy="24" r="24"/>
      <circle cx="24" cy="24" r="12" fill="#ffffff"/>
      <rect x="24" y="12" width="52" height="24" rx="12"/>
    </g>
  </g>

  <g font-family="Segoe UI, Arial, sans-serif" transform="translate(300,40)">
    <text x="0" y="84" font-size="78" font-weight="800" letter-spacing="1.6" fill="#0a2f73">DOMINION</text>
    <text x="430" y="84" font-size="78" font-weight="800" letter-spacing="1.6" fill="#ff6b00">CITY</text>
    <text x="2" y="136" font-size="46" font-weight="700" letter-spacing="7.5" fill="#0a2f73">GLOBAL SERVICES</text>
  </g>
</svg>
