<svg xmlns="http://www.w3.org/2000/svg" viewBox="0 0 64 64">
  <defs>
    <linearGradient id="arcGrad" x1="0" y1="0" x2="1" y2="1">
      <stop offset="0" stop-color="#ff9f4f"/>
      <stop offset="1" stop-color="#ff6b00"/>
    </linearGradient>
    <linearGradient id="blueGrad" x1="0" y1="0" x2="0" y2="1">
      <stop offset="0" stop-color="#0f4a97"/>
      <stop offset="1" stop-color="#0a2f73"/>
    </linearGradient>
  </defs>

  <path d="M20 9 C45 8 58 25 53 45" fill="none" stroke="url(#arcGrad)" stroke-width="6" stroke-linecap="round"/>
  <path d="M12 15 h18 c9 0 15 7 15 15 c0 9-6 15-15 15 h-8 v11 h-10 z M22 24 h7 c3 0 5-2 5-5 c0-2-2-4-5-4 h-7z" fill="url(#blueGrad)"/>
  <g fill="url(#blueGrad)">
    <rect x="35" y="32" width="4" height="15" rx="0.6"/>
    <rect x="40" y="28" width="4" height="19" rx="0.6"/>
    <rect x="45" y="24" width="4" height="23" rx="0.6"/>
    <rect x="50" y="33" width="3" height="14" rx="0.6"/>
  </g>
</svg>
